<?xml version="1.0" encoding="UTF-8"?>
<svg id="LayerX_Logo" data-name="LayerX Logo" xmlns="http://www.w3.org/2000/svg" width="668" height="618" viewBox="0 0 668 618">
  <defs>
    <style>
      .cls-1 {
        fill: #fff;
      }
    </style>
  </defs>
  <rect class="cls-1" width="668" height="618"/>
  <g id="Symbol_Logotype_Vertical" data-name="Symbol + Logotype  |  Vertical">
    <g>
      <path d="m506.23,305.83l-91.41-52.78c-3.78-2.18-8.44-2.18-12.23,0l-78.92,45.56c-3.14,1.82-3.14,6.35,0,8.17l91.41,52.78c3.78,2.18,8.44,2.18,12.23,0l78.92-45.56c3.14-1.82,3.14-6.35,0-8.17Z"/>
      <path d="m352.71,258.45l128.37-74.12c3.78-2.18,6.11-6.22,6.11-10.59v-76.97c0-3.63-3.93-5.9-7.08-4.08l-83.08,47.97c-3.78,2.18-6.11,6.22-6.11,10.59v39.56l-147.11-84.93c-3.78-2.18-8.44-2.18-12.23,0l-70.61,40.77c-3.14,1.82-3.14,6.35,0,8.17l108.33,62.55-84.13,48.57c-3.78,2.18-6.11,6.22-6.11,10.59v91.12c0,3.63,3.93,5.9,7.08,4.08l116.7-67.38c3.78-2.18,6.11-6.22,6.11-10.59v-53.51s31.52,18.2,31.52,18.2c3.78,2.18,8.44,2.18,12.23,0Z"/>
    </g>
    <g>
      <path d="m552.19,493.23l-22.27-45.74c-.25-.51-.25-1.1,0-1.6l21.87-44.55c.6-1.21-.29-2.63-1.64-2.63h-14.44c-.87,0-1.66.49-2.05,1.28l-18.33,37.35c-.65,1.44-2.86,1.44-3.51,0l-18.41-37.35c-.38-.78-1.18-1.27-2.05-1.27h-14.45c-1.35,0-2.23,1.42-1.64,2.63l21.95,44.82c.25.51.25,1.1,0,1.6l-22.23,45.46c-.59,1.21.29,2.63,1.64,2.63h14.43c.87,0,1.67-.5,2.05-1.28l18.7-38.24c.64-1.44,2.88-1.44,3.52,0l18.72,38.24c.38.78,1.18,1.28,2.05,1.28h14.43c1.35,0,2.23-1.41,1.64-2.62Z"/>
      <path d="m116.04,494.03v-93.49c0-1.01.82-1.82,1.82-1.82h13.77c1.01,0,1.82.82,1.82,1.82v77.74c0,1.01.82,1.82,1.82,1.82h42.7c1.01,0,1.82.82,1.82,1.82v12.1c0,1.01-.82,1.82-1.82,1.82h-60.12c-1.01,0-1.82-.82-1.82-1.82Z"/>
      <path d="m469.62,438.55v-12.45c0-.95-.72-1.74-1.66-1.82-8.68-.76-17.14,1.87-22.66,7.8-.56.6-1.57.19-1.57-.63v-4.02c0-1.01-.82-1.82-1.82-1.82h-13.31c-1.01,0-1.82.82-1.82,1.82v66.59c0,1.01.82,1.82,1.82,1.82h12.93c1.01,0,1.82-.82,1.82-1.82v-35.11c-.15-14.09,11.13-20.71,24.17-18.42,1.11.17,2.1-.68,2.1-1.8v-.14Z"/>
      <path d="m327.05,425.74c-.99,0-1.86.63-2.17,1.57-2.94,8.94-6.89,20.98-10.71,32.72h0c-2.22,6.82-4.26,13.14-6.35,19.6-1.04,2.44-4.68.93-6.3-.32-2.19-1.81-4.13-7.55-4.88-10.04-4.01-13.91-7.54-27.87-11.25-41.84-.27-1-1.17-1.7-2.21-1.7h-12.07c-1.2,0-2.07,1.14-1.76,2.3,4.05,15.04,11.91,44.19,13.75,50.53,2.9,10.01,8.5,15.8,16.96,17.47,1.09.21,1.73,1.35,1.36,2.39-3.69,10.32-11,12.03-22.01,11.91-1.02-.01-1.85.81-1.85,1.82v11.81c0,.99.79,1.8,1.78,1.82,4.15.09,8.71.01,11.97-.55,11.1-2.04,21.55-8.11,26.1-23.5,3.17-10.74,17.48-54.38,23.81-73.63.39-1.18-.49-2.39-1.73-2.39h-12.43Z"/>
      <path d="m402.45,476.08c-.74-.74-1.95-.71-2.65.08-6.88,8.16-19.82,9.17-28.66,4.76-6.5-3.01-9.71-10.23-10.18-13.67-.22-1.12.65-2.17,1.79-2.17h50.7c1.2,0,2.21-.93,2.28-2.13.65-10.72-1.88-20.21-8.12-27.29-6.12-7-15.17-11.09-24.44-11.38-20.71-2.09-38.91,15.92-38.36,36.45,0,10.51,4.37,20.89,12.26,27.91,16.48,14.46,42.83,8.62,52.33-3.23.63-.72.59-1.81-.09-2.48l-6.85-6.85Zm-39.61-22.52c-1.9-.04-2.14-2.08-1.39-3.45,3.12-9.41,13.08-12.97,19.99-12.97,8.31,0,17.35,5.79,18.64,14.33.17,1.1-.69,2.1-1.81,2.1h-35.43Z"/>
      <path d="m256.52,427.5c0-1.01-.82-1.82-1.82-1.82h-12.78c-1.01,0-1.82.82-1.82,1.82v4.62c0,.83-1,1.22-1.58.63-5.44-5.58-13.34-7.77-20.92-7.76-18.6,0-33.73,16.2-33.73,36.12s15.13,36.12,33.73,36.12c8.49.11,17.03-2.89,22.9-9.09.87-.92,2.4-.68,2.95.46,3.1,6.38,10.5,8.95,17.67,8.55.97-.05,1.74-.85,1.74-1.82v-10.44c0-.89-.65-1.65-1.53-1.8-5.96-1.57-4.56-8.81-4.81-14.83v-40.75Zm-20.59,49.12c-4.09,4.09-9.31,6.21-15.38,6.21s-11-2.12-15.09-6.21c-3.95-4.09-5.92-9.31-5.92-15.52s1.97-11.43,5.92-15.52c4.09-4.09,9.03-6.21,15.09-6.21s11.28,2.12,15.38,6.21c4.23,4.09,6.35,9.31,6.35,15.52s-2.12,11.43-6.35,15.52Z"/>
    </g>
  </g>
</svg>